<svg width="204" height="34" viewBox="0 0 204 34" fill="none" xmlns="http://www.w3.org/2000/svg">
<g clip-path="url(#clip0_125_380)">
<path d="M41.3455 24.908C41.3455 25.5693 41.3988 26.0493 41.5055 26.348C41.6335 26.6467 41.8682 26.8493 42.2095 26.956C42.5722 27.0627 43.1482 27.116 43.9375 27.116C43.9802 27.116 44.0015 27.18 44.0015 27.308C44.0015 27.436 43.9802 27.5 43.9375 27.5C43.2548 27.5 42.7215 27.4893 42.3375 27.468L40.0335 27.436L37.7935 27.468C37.3882 27.4893 36.8335 27.5 36.1295 27.5C36.0868 27.5 36.0655 27.436 36.0655 27.308C36.0655 27.18 36.0868 27.116 36.1295 27.116C36.8975 27.116 37.4628 27.0627 37.8255 26.956C38.1882 26.8493 38.4335 26.6467 38.5615 26.348C38.7108 26.028 38.7855 25.548 38.7855 24.908V10.092C38.7855 9.452 38.7108 8.98267 38.5615 8.684C38.4335 8.38533 38.1882 8.18266 37.8255 8.076C37.4628 7.948 36.8975 7.884 36.1295 7.884C36.0868 7.884 36.0655 7.82 36.0655 7.692C36.0655 7.564 36.0868 7.5 36.1295 7.5L37.7935 7.532C38.7322 7.57467 39.4788 7.596 40.0335 7.596C40.6522 7.596 41.4308 7.57467 42.3695 7.532L43.9375 7.5C43.9802 7.5 44.0015 7.564 44.0015 7.692C44.0015 7.82 43.9802 7.884 43.9375 7.884C43.1695 7.884 42.6042 7.948 42.2415 8.076C41.9002 8.204 41.6655 8.428 41.5375 8.748C41.4095 9.04667 41.3455 9.516 41.3455 10.156V24.908ZM66.7843 7.5C66.8482 7.5 66.8802 7.564 66.8802 7.692C66.8802 7.82 66.8482 7.884 66.7843 7.884C65.2482 7.884 64.0962 8.85467 63.3282 10.796L56.8002 27.468C56.7789 27.5533 56.6616 27.596 56.4482 27.596C56.2349 27.596 56.1176 27.5533 56.0962 27.468L48.0642 10.156C47.6802 9.34533 47.2856 8.76933 46.8802 8.428C46.4962 8.06533 46.0162 7.884 45.4402 7.884C45.3762 7.884 45.3442 7.82 45.3442 7.692C45.3442 7.564 45.3762 7.5 45.4402 7.5L46.4322 7.532C46.9869 7.57467 47.5096 7.596 48.0002 7.596C49.1522 7.596 50.2616 7.57467 51.3282 7.532C51.6696 7.51067 52.1069 7.5 52.6402 7.5C52.7042 7.5 52.7362 7.564 52.7362 7.692C52.7362 7.82 52.7042 7.884 52.6402 7.884C51.3176 7.884 50.6562 8.28933 50.6562 9.1C50.6562 9.44133 50.7629 9.82533 50.9762 10.252L57.5362 24.524L56.3842 26.38L62.5602 10.636C62.7309 10.1667 62.8162 9.772 62.8162 9.452C62.8162 8.40667 62.0056 7.884 60.3842 7.884C60.3202 7.884 60.2882 7.82 60.2882 7.692C60.2882 7.564 60.3202 7.5 60.3842 7.5L61.8242 7.532C62.6349 7.57467 63.3389 7.596 63.9363 7.596C64.3843 7.596 64.8856 7.57467 65.4403 7.532L66.7843 7.5ZM68.0342 27.5C67.9702 27.5 67.9382 27.436 67.9382 27.308C67.9382 27.18 67.9702 27.116 68.0342 27.116C68.8022 27.116 69.3569 27.0627 69.6982 26.956C70.0609 26.8493 70.3062 26.6467 70.4342 26.348C70.5622 26.028 70.6262 25.548 70.6262 24.908V10.092C70.6262 9.452 70.5622 8.98267 70.4342 8.684C70.3062 8.38533 70.0609 8.18266 69.6982 8.076C69.3569 7.948 68.8022 7.884 68.0342 7.884C67.9702 7.884 67.9382 7.82 67.9382 7.692C67.9382 7.564 67.9702 7.5 68.0342 7.5H81.0903C81.3036 7.5 81.4102 7.596 81.4102 7.788L81.4742 11.82C81.4742 11.884 81.4102 11.9267 81.2822 11.948C81.1756 11.948 81.1116 11.916 81.0903 11.852C80.9409 10.6787 80.5249 9.78267 79.8422 9.164C79.1596 8.54533 78.2636 8.236 77.1542 8.236H75.5222C74.5836 8.236 73.9542 8.37466 73.6342 8.652C73.3142 8.92933 73.1542 9.452 73.1542 10.22V24.78C73.1542 25.548 73.2929 26.0707 73.5702 26.348C73.8689 26.6253 74.4556 26.764 75.3302 26.764H77.4422C78.6369 26.764 79.6289 26.412 80.4182 25.708C81.2289 24.9827 81.7836 23.9587 82.0822 22.636C82.0822 22.5933 82.1249 22.572 82.2102 22.572C82.2742 22.572 82.3276 22.5933 82.3702 22.636C82.4342 22.6573 82.4662 22.6787 82.4662 22.7C82.2529 24.236 82.1462 25.676 82.1462 27.02C82.1462 27.1907 82.1142 27.3187 82.0503 27.404C81.9862 27.468 81.8582 27.5 81.6662 27.5H68.0342ZM79.8742 20.14C79.8742 19.2227 79.6076 18.5507 79.0742 18.124C78.5622 17.676 77.7409 17.452 76.6102 17.452H71.9382V16.716H76.6742C77.7622 16.716 78.5622 16.5347 79.0742 16.172C79.5862 15.788 79.8422 15.2013 79.8422 14.412C79.8422 14.3693 79.8956 14.348 80.0022 14.348C80.1302 14.348 80.1942 14.3693 80.1942 14.412L80.1622 17.1L80.1942 18.54C80.2369 19.2227 80.2582 19.756 80.2582 20.14C80.2582 20.1827 80.1942 20.204 80.0662 20.204C79.9382 20.204 79.8742 20.1827 79.8742 20.14ZM101.506 27.5C100.973 27.5 99.9913 26.572 98.562 24.716C97.1327 22.86 95.3833 20.268 93.314 16.94L95.458 16.236C97.2713 19.0093 98.786 21.1747 100.002 22.732C101.239 24.268 102.338 25.388 103.298 26.092C104.258 26.7747 105.186 27.116 106.082 27.116C106.146 27.116 106.178 27.18 106.178 27.308C106.178 27.436 106.146 27.5 106.082 27.5H101.506ZM93.218 7.404C95.0313 7.404 96.4287 7.76667 97.41 8.492C98.3913 9.196 98.882 10.1773 98.882 11.436C98.882 12.4813 98.562 13.4627 97.922 14.38C97.3033 15.2973 96.4713 16.0333 95.426 16.588C94.3807 17.1427 93.2713 17.42 92.098 17.42C91.65 17.42 91.1273 17.3987 90.53 17.356V24.908C90.53 25.548 90.594 26.028 90.722 26.348C90.85 26.6467 91.0847 26.8493 91.426 26.956C91.7887 27.0627 92.354 27.116 93.122 27.116C93.186 27.116 93.218 27.18 93.218 27.308C93.218 27.436 93.186 27.5 93.122 27.5C92.4607 27.5 91.938 27.4893 91.554 27.468L89.25 27.436L87.01 27.468C86.6047 27.4893 86.0607 27.5 85.378 27.5C85.314 27.5 85.282 27.436 85.282 27.308C85.282 27.18 85.314 27.116 85.378 27.116C86.146 27.116 86.7113 27.0627 87.074 26.956C87.4367 26.8493 87.682 26.6467 87.81 26.348C87.938 26.028 88.002 25.548 88.002 24.908V10.092C88.002 9.452 87.938 8.98267 87.81 8.684C87.682 8.38533 87.4367 8.18266 87.074 8.076C86.7327 7.948 86.178 7.884 85.41 7.884C85.3673 7.884 85.346 7.82 85.346 7.692C85.346 7.564 85.3673 7.5 85.41 7.5L87.01 7.532C87.9487 7.57467 88.6953 7.596 89.25 7.596C89.634 7.596 89.9967 7.58533 90.338 7.564C90.6793 7.54267 90.978 7.52133 91.234 7.5C91.938 7.436 92.5993 7.404 93.218 7.404ZM96.226 12.588C96.226 10.9027 95.906 9.708 95.266 9.004C94.626 8.3 93.7407 7.948 92.61 7.948C92.0553 7.948 91.6287 8.00133 91.33 8.108C91.0527 8.21467 90.85 8.428 90.722 8.748C90.594 9.04667 90.53 9.516 90.53 10.156V16.524C91.3407 16.6093 91.97 16.652 92.418 16.652C93.7833 16.652 94.754 16.3533 95.33 15.756C95.9273 15.1373 96.226 14.0813 96.226 12.588ZM111.991 24.78C111.991 25.3773 112.045 25.8147 112.151 26.092C112.279 26.348 112.503 26.5293 112.823 26.636C113.143 26.7213 113.645 26.764 114.327 26.764H117.047C118.391 26.764 119.501 26.3693 120.375 25.58C121.271 24.7693 121.869 23.6813 122.167 22.316C122.167 22.252 122.221 22.2307 122.327 22.252C122.455 22.252 122.519 22.284 122.519 22.348C122.327 24.2253 122.231 25.7827 122.231 27.02C122.231 27.1907 122.189 27.3187 122.103 27.404C122.039 27.468 121.922 27.5 121.751 27.5H106.839C106.797 27.5 106.775 27.436 106.775 27.308C106.775 27.18 106.797 27.116 106.839 27.116C107.607 27.116 108.173 27.0627 108.535 26.956C108.898 26.8493 109.143 26.6467 109.271 26.348C109.399 26.028 109.463 25.548 109.463 24.908V10.092C109.463 9.452 109.399 8.98267 109.271 8.684C109.143 8.38533 108.898 8.18266 108.535 8.076C108.173 7.948 107.607 7.884 106.839 7.884C106.797 7.884 106.775 7.82 106.775 7.692C106.775 7.564 106.797 7.5 106.839 7.5L108.439 7.532C109.378 7.57467 110.135 7.596 110.711 7.596C111.287 7.596 112.045 7.57467 112.983 7.532L114.583 7.5C114.626 7.5 114.647 7.564 114.647 7.692C114.647 7.82 114.626 7.884 114.583 7.884C113.815 7.884 113.25 7.948 112.887 8.076C112.546 8.18266 112.311 8.396 112.183 8.716C112.055 9.01467 111.991 9.484 111.991 10.124V24.78ZM130.331 16.492H136.923L137.147 17.228H129.851L130.331 16.492ZM145.499 27.116C145.605 27.116 145.659 27.18 145.659 27.308C145.659 27.436 145.605 27.5 145.499 27.5C145.093 27.5 144.464 27.4787 143.611 27.436C142.715 27.3933 142.075 27.372 141.691 27.372C141.2 27.372 140.592 27.3933 139.867 27.436C139.141 27.4787 138.597 27.5 138.235 27.5C138.149 27.5 138.107 27.436 138.107 27.308C138.107 27.18 138.149 27.116 138.235 27.116C138.96 27.116 139.483 27.052 139.803 26.924C140.123 26.7747 140.283 26.5187 140.283 26.156C140.283 25.7933 140.123 25.292 139.803 24.652L132.923 10.348L133.947 8.812L127.707 23.276C127.408 24.0013 127.259 24.5987 127.259 25.068C127.259 25.7507 127.525 26.2627 128.059 26.604C128.592 26.9453 129.36 27.116 130.363 27.116C130.469 27.116 130.523 27.18 130.523 27.308C130.523 27.436 130.469 27.5 130.363 27.5C129.979 27.5 129.424 27.4787 128.699 27.436C127.888 27.3933 127.184 27.372 126.587 27.372C126.032 27.372 125.371 27.3933 124.603 27.436C123.92 27.4787 123.365 27.5 122.939 27.5C122.853 27.5 122.811 27.436 122.811 27.308C122.811 27.18 122.853 27.116 122.939 27.116C123.536 27.116 124.037 26.9987 124.443 26.764C124.869 26.5293 125.275 26.124 125.659 25.548C126.043 24.972 126.48 24.1187 126.971 22.988L133.787 7.276C133.808 7.212 133.883 7.18 134.011 7.18C134.139 7.15867 134.213 7.19067 134.235 7.276L141.915 23.116C142.661 24.6733 143.28 25.7293 143.771 26.284C144.283 26.8387 144.859 27.116 145.499 27.116ZM149.468 8.236L150.3 8.3V23.852C150.3 24.9613 150.503 25.7827 150.908 26.316C151.335 26.8493 151.975 27.116 152.828 27.116C152.871 27.116 152.892 27.18 152.892 27.308C152.892 27.436 152.871 27.5 152.828 27.5C152.274 27.5 151.847 27.4893 151.548 27.468L149.916 27.436L148.188 27.468C147.868 27.4893 147.399 27.5 146.78 27.5C146.738 27.5 146.716 27.436 146.716 27.308C146.716 27.18 146.738 27.116 146.78 27.116C147.698 27.116 148.37 26.8493 148.796 26.316C149.244 25.7827 149.468 24.9613 149.468 23.852V8.236ZM165.66 27.916C165.66 27.9587 165.607 27.9907 165.5 28.012C165.415 28.0333 165.351 28.0227 165.309 27.98L150.236 10.124C149.532 9.292 148.903 8.716 148.348 8.396C147.794 8.05467 147.239 7.884 146.684 7.884C146.642 7.884 146.62 7.82 146.62 7.692C146.62 7.564 146.642 7.5 146.684 7.5L147.932 7.532C148.188 7.55333 148.551 7.564 149.02 7.564L150.652 7.532C150.866 7.51067 151.111 7.5 151.388 7.5C151.559 7.5 151.687 7.54267 151.772 7.628C151.858 7.71333 151.986 7.884 152.156 8.14L152.924 9.164L165.404 24.204L165.66 27.916ZM165.66 27.916L164.861 26.924V11.18C164.861 10.0707 164.658 9.24933 164.253 8.716C163.847 8.16133 163.218 7.884 162.365 7.884C162.322 7.884 162.3 7.82 162.3 7.692C162.3 7.564 162.322 7.5 162.365 7.5L163.644 7.532C164.284 7.57467 164.829 7.596 165.277 7.596C165.66 7.596 166.215 7.57467 166.941 7.532L168.285 7.5C168.327 7.5 168.348 7.564 168.348 7.692C168.348 7.82 168.327 7.884 168.285 7.884C166.535 7.884 165.66 8.98267 165.66 11.18V27.916ZM178.859 27.628C178.198 27.628 177.451 27.596 176.619 27.532C176.299 27.5107 175.905 27.4893 175.435 27.468C174.987 27.4467 174.475 27.436 173.899 27.436L171.659 27.468C171.254 27.4893 170.699 27.5 169.995 27.5C169.953 27.5 169.931 27.436 169.931 27.308C169.931 27.18 169.953 27.116 169.995 27.116C170.763 27.116 171.329 27.0627 171.691 26.956C172.054 26.8493 172.299 26.6467 172.427 26.348C172.577 26.028 172.651 25.548 172.651 24.908V10.092C172.651 9.452 172.587 8.98267 172.459 8.684C172.331 8.38533 172.086 8.18266 171.723 8.076C171.382 7.948 170.827 7.884 170.059 7.884C169.995 7.884 169.963 7.82 169.963 7.692C169.963 7.564 169.995 7.5 170.059 7.5L171.659 7.532C172.598 7.57467 173.345 7.596 173.899 7.596C174.689 7.596 175.499 7.564 176.331 7.5C177.355 7.45733 178.049 7.436 178.411 7.436C180.609 7.436 182.561 7.86267 184.267 8.716C185.974 9.56933 187.297 10.732 188.236 12.204C189.174 13.676 189.643 15.3293 189.643 17.164C189.643 19.2333 189.153 21.068 188.171 22.668C187.212 24.2467 185.9 25.4733 184.235 26.348C182.593 27.2013 180.801 27.628 178.859 27.628ZM178.539 27.052C180.139 27.052 181.558 26.7 182.795 25.996C184.033 25.2707 184.993 24.2253 185.675 22.86C186.38 21.4733 186.732 19.8093 186.732 17.868C186.732 16.012 186.401 14.3373 185.74 12.844C185.078 11.3293 184.139 10.1453 182.923 9.292C181.729 8.41733 180.331 7.98 178.731 7.98C177.814 7.98 177.11 8.03333 176.619 8.14C176.129 8.24667 175.766 8.46 175.531 8.78C175.297 9.07867 175.179 9.53733 175.179 10.156V24.556C175.179 25.1747 175.265 25.6653 175.435 26.028C175.627 26.3693 175.958 26.6253 176.427 26.796C176.918 26.9667 177.622 27.052 178.539 27.052Z" fill="#00032E"/>
<path d="M26.8438 32.2468H24.6112C24.6112 32.2468 16.6466 22.2215 14.7881 20.9684C11.6626 20.9684 8.09057 23.8924 8.09057 23.8924V32.2468H5.93131V5.51266H15.1621C18.2622 5.51266 20.7068 6.15093 22.4959 7.42749C24.3004 8.69101 25.2027 10.456 25.2027 12.7226C25.2027 14.4029 24.5472 15.9009 23.2362 17.2166C21.9253 18.5192 19.3187 20.0817 17.0207 20.5506L26.8438 32.2468ZM8.09057 22.6392C8.09057 22.6392 9.43008 21.5949 11.6626 20.5506C14.3416 19.2975 15.6811 20.1329 17.4672 19.2975C19.2532 18.8797 20.3802 18.0484 21.4857 16.7911C22.5787 15.5481 22.4959 13.4155 22.4959 12.7226C22.4959 9.64843 19.23 6.76582 14.7881 6.76582H8.09057V22.6392Z" fill="#D6A829"/>
<path d="M28.6254 15.0142C28.4493 7.16881 22.7701 2.17089 15.8006 2.17089C8.64011 2.17097 2.28614 7.40606 2.28602 15.3903V31.8291H28.6298V15.3903L28.6254 15.0142ZM30.4158 33.5H0.5V15.3903C0.500127 6.47166 7.66617 0.500083 15.8006 0.5C23.9621 0.5 30.4157 6.49747 30.4158 15.3903V33.5Z" fill="#D6A829"/>
</g>
<defs>
<clipPath id="clip0_125_380">
<rect width="203" height="33" fill="white" transform="translate(0.5 0.5)"/>
</clipPath>
</defs>
</svg>
