<svg width="187" height="28" viewBox="0 0 187 28" fill="none" xmlns="http://www.w3.org/2000/svg">
<path fill-rule="evenodd" clip-rule="evenodd" d="M6.59175 3.95052C6.19145 4.2526 5.8119 4.58234 5.4563 4.93827V26.7306H7.24709V19.4812C7.24709 19.4812 10.9183 16.6481 12.757 17.7485C13.0326 17.9135 13.3048 18.2291 13.3048 18.2291L20.6125 26.7306H23.0984L14.8253 17.3543C14.8253 17.3543 17.9405 16.3357 19.3716 14.5947C20.4083 13.3335 21.0262 12.0721 21.0262 10.6524C21.0262 8.7375 20.0408 6.59496 18.5443 5.52744C17.0605 4.44893 15.8758 3.95052 13.3048 3.95052H6.59175ZM7.24709 17.4637C7.24709 17.4637 8.65157 16.5706 9.85749 16.1716C10.7149 15.888 11.4768 15.9223 12.2432 15.9569C12.9773 15.99 13.7156 16.0233 14.5458 15.7774C16.0011 15.3464 16.9075 14.9439 17.855 13.8063C18.9035 12.5473 19.3115 11.4581 19.096 9.86397C18.7093 7.00336 16.4856 5.55546 12.8017 5.55546H7.24709V17.4637Z" fill="#D6A829"/>
<path fill-rule="evenodd" clip-rule="evenodd" d="M0.547972 28H25.5C25.5 28 25.5001 20.5092 25.5 12.996C25.4999 5.4827 20.295 0.172654 13.3048 0.0038702C6.15038 -0.168879 0.500105 5.46089 0.5 12.996L0.547972 28ZM7.24709 26.7306H5.4563H2.29501V12.842C2.29506 9.58862 3.52087 6.87549 5.4563 4.93827C5.8119 4.58234 6.19145 4.2526 6.59175 3.95052C8.53016 2.48774 10.7566 1.65073 13.3048 1.6507C19.0849 1.6507 23.6922 6.21371 23.8382 12.842V26.7306H23.0984H20.6125H7.24709Z" fill="#D6A829"/>
<path d="M36.156 24.408C36.156 25.0693 36.2093 25.5493 36.316 25.848C36.444 26.1467 36.6787 26.3493 37.02 26.456C37.3827 26.5627 37.9587 26.616 38.748 26.616C38.7907 26.616 38.812 26.68 38.812 26.808C38.812 26.936 38.7907 27 38.748 27C38.0653 27 37.532 26.9893 37.148 26.968L34.844 26.936L32.604 26.968C32.1987 26.9893 31.644 27 30.94 27C30.8973 27 30.876 26.936 30.876 26.808C30.876 26.68 30.8973 26.616 30.94 26.616C31.708 26.616 32.2733 26.5627 32.636 26.456C32.9987 26.3493 33.244 26.1467 33.372 25.848C33.5213 25.528 33.596 25.048 33.596 24.408V9.592C33.596 8.952 33.5213 8.48267 33.372 8.184C33.244 7.88533 32.9987 7.68266 32.636 7.576C32.2733 7.448 31.708 7.384 30.94 7.384C30.8973 7.384 30.876 7.32 30.876 7.192C30.876 7.064 30.8973 7 30.94 7L32.604 7.032C33.5427 7.07467 34.2893 7.096 34.844 7.096C35.4627 7.096 36.2413 7.07467 37.18 7.032L38.748 7C38.7907 7 38.812 7.064 38.812 7.192C38.812 7.32 38.7907 7.384 38.748 7.384C37.98 7.384 37.4147 7.448 37.052 7.576C36.7107 7.704 36.476 7.928 36.348 8.248C36.22 8.54667 36.156 9.016 36.156 9.656V24.408ZM61.5948 7C61.6588 7 61.6908 7.064 61.6908 7.192C61.6908 7.32 61.6588 7.384 61.5948 7.384C60.0588 7.384 58.9068 8.35467 58.1388 10.296L51.6108 26.968C51.5894 27.0533 51.4721 27.096 51.2588 27.096C51.0454 27.096 50.9281 27.0533 50.9068 26.968L42.8748 9.656C42.4908 8.84533 42.0961 8.26933 41.6908 7.928C41.3068 7.56533 40.8268 7.384 40.2508 7.384C40.1867 7.384 40.1547 7.32 40.1547 7.192C40.1547 7.064 40.1867 7 40.2508 7L41.2428 7.032C41.7974 7.07467 42.3201 7.096 42.8108 7.096C43.9628 7.096 45.0721 7.07467 46.1388 7.032C46.4801 7.01067 46.9174 7 47.4508 7C47.5148 7 47.5468 7.064 47.5468 7.192C47.5468 7.32 47.5148 7.384 47.4508 7.384C46.1281 7.384 45.4668 7.78933 45.4668 8.6C45.4668 8.94133 45.5734 9.32533 45.7868 9.752L52.3468 24.024L51.1948 25.88L57.3708 10.136C57.5414 9.66667 57.6268 9.272 57.6268 8.952C57.6268 7.90667 56.8161 7.384 55.1948 7.384C55.1308 7.384 55.0988 7.32 55.0988 7.192C55.0988 7.064 55.1308 7 55.1948 7L56.6348 7.032C57.4454 7.07467 58.1494 7.096 58.7468 7.096C59.1948 7.096 59.6961 7.07467 60.2508 7.032L61.5948 7ZM62.8448 27C62.7808 27 62.7488 26.936 62.7488 26.808C62.7488 26.68 62.7808 26.616 62.8448 26.616C63.6128 26.616 64.1674 26.5627 64.5088 26.456C64.8714 26.3493 65.1168 26.1467 65.2448 25.848C65.3728 25.528 65.4368 25.048 65.4368 24.408V9.592C65.4368 8.952 65.3728 8.48267 65.2448 8.184C65.1168 7.88533 64.8714 7.68266 64.5088 7.576C64.1674 7.448 63.6128 7.384 62.8448 7.384C62.7808 7.384 62.7488 7.32 62.7488 7.192C62.7488 7.064 62.7808 7 62.8448 7H75.9008C76.1141 7 76.2208 7.096 76.2208 7.288L76.2848 11.32C76.2848 11.384 76.2208 11.4267 76.0928 11.448C75.9861 11.448 75.9221 11.416 75.9008 11.352C75.7514 10.1787 75.3354 9.28267 74.6528 8.664C73.9701 8.04533 73.0741 7.736 71.9648 7.736H70.3328C69.3941 7.736 68.7648 7.87466 68.4448 8.152C68.1248 8.42933 67.9648 8.952 67.9648 9.72V24.28C67.9648 25.048 68.1034 25.5707 68.3808 25.848C68.6794 26.1253 69.2661 26.264 70.1408 26.264H72.2528C73.4474 26.264 74.4394 25.912 75.2288 25.208C76.0394 24.4827 76.5941 23.4587 76.8928 22.136C76.8928 22.0933 76.9354 22.072 77.0208 22.072C77.0848 22.072 77.1381 22.0933 77.1808 22.136C77.2448 22.1573 77.2768 22.1787 77.2768 22.2C77.0634 23.736 76.9568 25.176 76.9568 26.52C76.9568 26.6907 76.9248 26.8187 76.8608 26.904C76.7968 26.968 76.6688 27 76.4768 27H62.8448ZM74.6848 19.64C74.6848 18.7227 74.4181 18.0507 73.8848 17.624C73.3728 17.176 72.5514 16.952 71.4208 16.952H66.7488V16.216H71.4848C72.5728 16.216 73.3728 16.0347 73.8848 15.672C74.3968 15.288 74.6528 14.7013 74.6528 13.912C74.6528 13.8693 74.7061 13.848 74.8128 13.848C74.9408 13.848 75.0048 13.8693 75.0048 13.912L74.9728 16.6L75.0048 18.04C75.0474 18.7227 75.0688 19.256 75.0688 19.64C75.0688 19.6827 75.0048 19.704 74.8768 19.704C74.7488 19.704 74.6848 19.6827 74.6848 19.64ZM96.3165 27C95.7832 27 94.8018 26.072 93.3725 24.216C91.9432 22.36 90.1938 19.768 88.1245 16.44L90.2685 15.736C92.0818 18.5093 93.5965 20.6747 94.8125 22.232C96.0498 23.768 97.1485 24.888 98.1085 25.592C99.0685 26.2747 99.9965 26.616 100.893 26.616C100.957 26.616 100.989 26.68 100.989 26.808C100.989 26.936 100.957 27 100.893 27H96.3165ZM88.0285 6.904C89.8418 6.904 91.2392 7.26667 92.2205 7.992C93.2018 8.696 93.6925 9.67733 93.6925 10.936C93.6925 11.9813 93.3725 12.9627 92.7325 13.88C92.1138 14.7973 91.2818 15.5333 90.2365 16.088C89.1912 16.6427 88.0818 16.92 86.9085 16.92C86.4605 16.92 85.9378 16.8987 85.3405 16.856V24.408C85.3405 25.048 85.4045 25.528 85.5325 25.848C85.6605 26.1467 85.8952 26.3493 86.2365 26.456C86.5992 26.5627 87.1645 26.616 87.9325 26.616C87.9965 26.616 88.0285 26.68 88.0285 26.808C88.0285 26.936 87.9965 27 87.9325 27C87.2712 27 86.7485 26.9893 86.3645 26.968L84.0605 26.936L81.8205 26.968C81.4152 26.9893 80.8712 27 80.1885 27C80.1245 27 80.0925 26.936 80.0925 26.808C80.0925 26.68 80.1245 26.616 80.1885 26.616C80.9565 26.616 81.5218 26.5627 81.8845 26.456C82.2472 26.3493 82.4925 26.1467 82.6205 25.848C82.7485 25.528 82.8125 25.048 82.8125 24.408V9.592C82.8125 8.952 82.7485 8.48267 82.6205 8.184C82.4925 7.88533 82.2472 7.68266 81.8845 7.576C81.5432 7.448 80.9885 7.384 80.2205 7.384C80.1778 7.384 80.1565 7.32 80.1565 7.192C80.1565 7.064 80.1778 7 80.2205 7L81.8205 7.032C82.7592 7.07467 83.5058 7.096 84.0605 7.096C84.4445 7.096 84.8072 7.08533 85.1485 7.064C85.4898 7.04267 85.7885 7.02133 86.0445 7C86.7485 6.936 87.4098 6.904 88.0285 6.904ZM91.0365 12.088C91.0365 10.4027 90.7165 9.208 90.0765 8.504C89.4365 7.8 88.5512 7.448 87.4205 7.448C86.8658 7.448 86.4392 7.50133 86.1405 7.608C85.8632 7.71467 85.6605 7.928 85.5325 8.248C85.4045 8.54667 85.3405 9.016 85.3405 9.656V16.024C86.1512 16.1093 86.7805 16.152 87.2285 16.152C88.5938 16.152 89.5645 15.8533 90.1405 15.256C90.7378 14.6373 91.0365 13.5813 91.0365 12.088ZM106.802 24.28C106.802 24.8773 106.855 25.3147 106.962 25.592C107.09 25.848 107.314 26.0293 107.634 26.136C107.954 26.2213 108.455 26.264 109.138 26.264H111.858C113.202 26.264 114.311 25.8693 115.186 25.08C116.082 24.2693 116.679 23.1813 116.978 21.816C116.978 21.752 117.031 21.7307 117.138 21.752C117.266 21.752 117.33 21.784 117.33 21.848C117.138 23.7253 117.042 25.2827 117.042 26.52C117.042 26.6907 116.999 26.8187 116.914 26.904C116.85 26.968 116.732 27 116.562 27H101.65C101.607 27 101.586 26.936 101.586 26.808C101.586 26.68 101.607 26.616 101.65 26.616C102.418 26.616 102.983 26.5627 103.346 26.456C103.708 26.3493 103.954 26.1467 104.082 25.848C104.21 25.528 104.274 25.048 104.274 24.408V9.592C104.274 8.952 104.21 8.48267 104.082 8.184C103.954 7.88533 103.708 7.68266 103.346 7.576C102.983 7.448 102.418 7.384 101.65 7.384C101.607 7.384 101.586 7.32 101.586 7.192C101.586 7.064 101.607 7 101.65 7L103.25 7.032C104.188 7.07467 104.946 7.096 105.522 7.096C106.098 7.096 106.855 7.07467 107.794 7.032L109.394 7C109.436 7 109.458 7.064 109.458 7.192C109.458 7.32 109.436 7.384 109.394 7.384C108.626 7.384 108.06 7.448 107.698 7.576C107.356 7.68266 107.122 7.896 106.994 8.216C106.866 8.51467 106.802 8.984 106.802 9.624V24.28ZM125.141 15.992H131.733L131.957 16.728H124.661L125.141 15.992ZM140.309 26.616C140.416 26.616 140.469 26.68 140.469 26.808C140.469 26.936 140.416 27 140.309 27C139.904 27 139.275 26.9787 138.421 26.936C137.525 26.8933 136.885 26.872 136.501 26.872C136.011 26.872 135.403 26.8933 134.677 26.936C133.952 26.9787 133.408 27 133.045 27C132.96 27 132.917 26.936 132.917 26.808C132.917 26.68 132.96 26.616 133.045 26.616C133.771 26.616 134.293 26.552 134.613 26.424C134.933 26.2747 135.093 26.0187 135.093 25.656C135.093 25.2933 134.933 24.792 134.613 24.152L127.733 9.848L128.757 8.312L122.517 22.776C122.219 23.5013 122.069 24.0987 122.069 24.568C122.069 25.2507 122.336 25.7627 122.869 26.104C123.403 26.4453 124.171 26.616 125.173 26.616C125.28 26.616 125.333 26.68 125.333 26.808C125.333 26.936 125.28 27 125.173 27C124.789 27 124.235 26.9787 123.509 26.936C122.699 26.8933 121.995 26.872 121.397 26.872C120.843 26.872 120.181 26.8933 119.413 26.936C118.731 26.9787 118.176 27 117.749 27C117.664 27 117.621 26.936 117.621 26.808C117.621 26.68 117.664 26.616 117.749 26.616C118.347 26.616 118.848 26.4987 119.253 26.264C119.68 26.0293 120.085 25.624 120.469 25.048C120.853 24.472 121.291 23.6187 121.781 22.488L128.597 6.776C128.619 6.712 128.693 6.68 128.821 6.68C128.949 6.65867 129.024 6.69067 129.045 6.776L136.725 22.616C137.472 24.1733 138.091 25.2293 138.581 25.784C139.093 26.3387 139.669 26.616 140.309 26.616ZM144.279 7.736L145.111 7.8V23.352C145.111 24.4613 145.314 25.2827 145.719 25.816C146.146 26.3493 146.786 26.616 147.639 26.616C147.682 26.616 147.703 26.68 147.703 26.808C147.703 26.936 147.682 27 147.639 27C147.084 27 146.658 26.9893 146.359 26.968L144.727 26.936L142.999 26.968C142.679 26.9893 142.21 27 141.591 27C141.548 27 141.527 26.936 141.527 26.808C141.527 26.68 141.548 26.616 141.591 26.616C142.508 26.616 143.18 26.3493 143.607 25.816C144.055 25.2827 144.279 24.4613 144.279 23.352V7.736ZM160.471 27.416C160.471 27.4587 160.418 27.4907 160.311 27.512C160.226 27.5333 160.162 27.5227 160.119 27.48L145.047 9.624C144.343 8.792 143.714 8.216 143.159 7.896C142.604 7.55467 142.05 7.384 141.495 7.384C141.452 7.384 141.431 7.32 141.431 7.192C141.431 7.064 141.452 7 141.495 7L142.743 7.032C142.999 7.05333 143.362 7.064 143.831 7.064L145.463 7.032C145.676 7.01067 145.922 7 146.199 7C146.37 7 146.498 7.04267 146.583 7.128C146.668 7.21333 146.796 7.384 146.967 7.64L147.735 8.664L160.215 23.704L160.471 27.416ZM160.471 27.416L159.671 26.424V10.68C159.671 9.57067 159.468 8.74933 159.063 8.216C158.658 7.66133 158.028 7.384 157.175 7.384C157.132 7.384 157.111 7.32 157.111 7.192C157.111 7.064 157.132 7 157.175 7L158.455 7.032C159.095 7.07467 159.639 7.096 160.087 7.096C160.471 7.096 161.026 7.07467 161.751 7.032L163.095 7C163.138 7 163.159 7.064 163.159 7.192C163.159 7.32 163.138 7.384 163.095 7.384C161.346 7.384 160.471 8.48267 160.471 10.68V27.416ZM173.67 27.128C173.009 27.128 172.262 27.096 171.43 27.032C171.11 27.0107 170.715 26.9893 170.246 26.968C169.798 26.9467 169.286 26.936 168.71 26.936L166.47 26.968C166.065 26.9893 165.51 27 164.806 27C164.763 27 164.742 26.936 164.742 26.808C164.742 26.68 164.763 26.616 164.806 26.616C165.574 26.616 166.139 26.5627 166.502 26.456C166.865 26.3493 167.11 26.1467 167.238 25.848C167.387 25.528 167.462 25.048 167.462 24.408V9.592C167.462 8.952 167.398 8.48267 167.27 8.184C167.142 7.88533 166.897 7.68266 166.534 7.576C166.193 7.448 165.638 7.384 164.87 7.384C164.806 7.384 164.774 7.32 164.774 7.192C164.774 7.064 164.806 7 164.87 7L166.47 7.032C167.409 7.07467 168.155 7.096 168.71 7.096C169.499 7.096 170.31 7.064 171.142 7C172.166 6.95733 172.859 6.936 173.222 6.936C175.419 6.936 177.371 7.36267 179.078 8.216C180.785 9.06933 182.107 10.232 183.046 11.704C183.985 13.176 184.454 14.8293 184.454 16.664C184.454 18.7333 183.963 20.568 182.982 22.168C182.022 23.7467 180.71 24.9733 179.046 25.848C177.403 26.7013 175.611 27.128 173.67 27.128ZM173.35 26.552C174.95 26.552 176.369 26.2 177.606 25.496C178.843 24.7707 179.803 23.7253 180.486 22.36C181.19 20.9733 181.542 19.3093 181.542 17.368C181.542 15.512 181.211 13.8373 180.55 12.344C179.889 10.8293 178.95 9.64533 177.734 8.792C176.539 7.91733 175.142 7.48 173.542 7.48C172.625 7.48 171.921 7.53333 171.43 7.64C170.939 7.74667 170.577 7.96 170.342 8.28C170.107 8.57867 169.99 9.03733 169.99 9.656V24.056C169.99 24.6747 170.075 25.1653 170.246 25.528C170.438 25.8693 170.769 26.1253 171.238 26.296C171.729 26.4667 172.433 26.552 173.35 26.552Z" fill="#00032E"/>
</svg>
