<svg width="89" height="92" viewBox="0 0 89 92" fill="none" xmlns="http://www.w3.org/2000/svg">
<rect x="0.714355" width="88" height="92" rx="12" fill="#172D44" fill-opacity="0.2"/>
<path d="M57.4422 28.312C57.2646 28.4881 55.9605 29.936 54.5418 31.5214C52.8617 33.3904 51.8601 34.5838 51.6932 34.9264C51.1924 35.9537 51.4217 37.3531 52.2564 38.4389C52.4548 38.703 52.6842 39.0065 52.7781 39.1237C52.9344 39.3292 52.8617 39.4268 50.1593 42.4992C46.7997 46.3057 47.1335 45.9631 46.9458 45.8161C46.8205 45.7281 45.4535 46.8435 39.2249 52.166C35.0616 55.718 31.5351 58.7709 31.3889 58.937C30.8044 59.6611 30.7836 60.6785 31.3367 61.7353C31.7228 62.469 32.3591 62.9582 33.1624 63.1343C33.8302 63.2809 34.6543 63.0757 35.3012 62.6061C35.6457 62.3615 47.7699 48.3994 48.5107 47.4011C48.6568 47.1956 48.6568 47.1665 48.4585 47.01C48.2393 46.8339 48.2707 46.7948 51.1711 43.5269C52.7781 41.7069 54.1446 40.2394 54.2177 40.2685C55.5324 40.8166 55.6993 40.8556 56.6801 40.8652C57.2438 40.8652 57.8381 40.8066 58.0573 40.7381C58.9128 40.4545 59.0275 40.337 64.2239 34.3293C64.4953 34.0162 64.7145 33.6736 64.7145 33.5661C64.7145 33.2725 64.2553 32.8909 63.9006 32.8909C63.5353 32.8909 63.5353 32.8809 61.1667 35.6307C60.1128 36.844 59.2365 37.8418 59.1945 37.8518C59.163 37.8713 58.9336 37.7148 58.6936 37.5092L58.2553 37.1471L59.9769 35.2391C62.2932 32.6854 62.5226 32.4113 62.5226 32.1962C62.5226 31.9026 62.0532 31.521 61.6981 31.521C61.4165 31.521 61.1659 31.7656 59.2777 33.8692C58.1091 35.1606 57.1177 36.2174 57.0761 36.2174C56.9508 36.2174 56.2622 35.6988 56.2622 35.6107C56.2622 35.5813 57.2014 34.505 58.3491 33.2331C60.123 31.2565 60.4361 30.8654 60.4361 30.6013C60.4361 30.2001 60.1651 29.9555 59.7161 29.9555C59.3198 29.9555 59.4659 29.8185 56.9826 32.5778L55.0626 34.7304L54.6663 34.4368C54.4369 34.2608 54.2907 34.0847 54.3222 34.0062C54.3536 33.9282 55.3761 32.7638 56.5863 31.4135C58.9757 28.7617 59.0904 28.5761 58.5687 28.175C58.2042 27.9013 57.8181 27.9499 57.4422 28.312ZM58.0161 39.1727C57.6091 39.4662 56.7642 39.5933 56.1275 39.4563C55.345 39.2898 54.8442 39.0257 54.145 38.3899C53.0911 37.4116 52.6532 36.2078 53.0809 35.4351L53.2373 35.1415L55.752 37.069L58.2561 38.9966L58.0161 39.1727Z" fill="#172D44"/>
<path d="M24.7737 29.2415C25.1283 30.4449 26.0777 32.353 28.1022 35.9045C33.9137 46.0801 36.0215 49.1234 37.8684 50.0037C38.1607 50.1407 38.5048 50.2092 38.8909 50.2092C39.4648 50.2092 39.4962 50.1997 40.1219 49.6416C40.4766 49.3285 41.186 48.7318 41.6868 48.3111C42.5424 47.6164 42.626 47.5675 42.793 47.7045C42.9599 47.8415 43.0432 47.7925 43.8571 47.1078C44.3371 46.6971 44.744 46.335 44.7648 46.2956C44.7754 46.2661 43.8885 45.4443 42.7824 44.4855C34.9676 37.6365 25.0969 29.1045 24.8051 28.948C24.69 28.889 24.69 28.948 24.7737 29.2415Z" fill="#172D44"/>
<path d="M47.0816 50.3564C46.5493 50.9726 46.1424 51.5402 46.1738 51.6088C46.2261 51.7263 48.3963 54.5636 50.869 57.734C53.6967 61.3835 55.46 63.2426 56.5241 63.7218C57.6302 64.2209 58.6319 64.0448 59.4874 63.2227C60.2698 62.4595 60.5723 61.031 60.1343 60.1407C59.9151 59.6906 57.7866 57.7045 52.5592 53.0862C48.7718 49.7398 48.1873 49.2311 48.0934 49.2311C48.062 49.2311 47.6032 49.7398 47.0816 50.3564Z" fill="#172D44"/>
</svg>
