<svg width="88" height="92" viewBox="0 0 88 92" fill="none" xmlns="http://www.w3.org/2000/svg">
<rect width="88" height="92" rx="12" fill="#172D44" fill-opacity="0.2"/>
<path d="M44.3325 59.6929L44.8728 59.5129C49.5269 57.9614 51.8538 57.1857 52.287 55.3505C52.7204 53.5151 50.9858 51.7807 47.5171 48.3118L44.0959 44.8909C44.0929 44.9004 44.0897 44.9103 44.0864 44.9208C44.0467 45.046 43.9892 45.2303 43.9199 45.462C43.781 45.9261 43.5957 46.576 43.4106 47.3168C43.0319 48.8333 42.6882 50.6017 42.6882 51.934C42.6882 53.2664 43.0319 55.0348 43.4106 56.5513C43.5957 57.2921 43.781 57.9419 43.9199 58.4061C43.9892 58.6378 44.0467 58.8221 44.0864 58.9472C44.1063 59.0098 44.1217 59.0576 44.1318 59.0888L44.1431 59.1234L44.1458 59.1311L44.3325 59.6929Z" fill="#172D44"/>
<path d="M33.0576 63.4496C28.4775 64.9596 26.0644 65.5915 24.7295 64.2567C23.2514 62.7785 24.1848 59.9783 26.0516 54.3778L29.4731 44.1132C30.7531 40.2734 31.505 38.0176 32.7597 37.1025L32.7492 37.1548C32.7345 37.2275 32.7134 37.3338 32.6868 37.4705C32.6336 37.7439 32.5585 38.1392 32.4697 38.6317C32.2923 39.616 32.0601 40.9915 31.8401 42.5587C31.4044 45.6637 31.0009 49.631 31.2088 52.8014C31.3346 54.7197 31.7337 57.0995 32.0899 58.9588C32.2696 59.8973 32.4417 60.7197 32.569 61.308C32.6326 61.6023 32.6851 61.8384 32.7219 62.0018L32.7647 62.1904L33.0576 63.4496Z" fill="#172D44"/>
<path d="M35.8499 37.158L35.7472 37.6547L35.7462 37.6596L35.7425 37.6777L35.7273 37.753C35.7138 37.82 35.6939 37.9203 35.6685 38.0508C35.6177 38.3117 35.5452 38.6931 35.4592 39.1704C35.2871 40.1255 35.0616 41.4611 34.8483 42.9808C34.4177 46.0496 34.0535 49.7595 34.2399 52.6025C34.3528 54.3237 34.7214 56.5504 35.0733 58.3872C35.2475 59.2971 35.4146 60.0952 35.538 60.6657C35.5996 60.9509 35.6503 61.1785 35.6853 61.3343L35.7256 61.5119L35.736 61.5566L35.9523 62.4864L41.4506 60.6538L41.243 60.0284C41.2307 59.9905 41.2131 59.9361 41.191 59.8664C41.1466 59.7269 41.0843 59.5266 41.0097 59.2773C40.8607 58.7797 40.6622 58.0836 40.4633 57.2873C40.0743 55.7296 39.6504 53.6592 39.6504 51.9342C39.6504 50.2091 40.0743 48.1388 40.4633 46.581C40.6622 45.7847 40.8607 45.0887 41.0097 44.5911C41.0843 44.3418 41.1466 44.1415 41.191 44.0019C41.2131 43.9323 41.2307 43.8778 41.243 43.8399L41.2615 43.7834L41.6922 42.4873L40.674 41.4689C38.5605 39.3554 37.0908 37.8857 35.8499 37.158Z" fill="#172D44"/>
<path d="M40.0545 27.2371C40.7702 27.6747 40.9958 28.6095 40.5581 29.3253C40.2408 29.8446 40.3204 30.5139 40.7507 30.9443L40.949 31.1425C42.141 32.3347 42.5807 34.086 42.0928 35.6998C41.8502 36.5028 41.0025 36.957 40.1995 36.7142C39.3965 36.4715 38.9422 35.6238 39.1851 34.8208C39.3489 34.2789 39.2013 33.6908 38.8009 33.2905L38.6026 33.0923C37.18 31.6696 36.9169 29.4575 37.9664 27.7408C38.404 27.0251 39.3388 26.7996 40.0545 27.2371Z" fill="#172D44"/>
<path d="M45.3899 31.3611C45.7972 30.954 46.0007 30.7504 46.2361 30.6758C46.4353 30.6126 46.649 30.6126 46.8481 30.6758C47.0836 30.7504 47.2871 30.954 47.6944 31.3611C48.1015 31.7683 48.305 31.9719 48.3797 32.2073C48.4429 32.4064 48.4429 32.6202 48.3797 32.8193C48.305 33.0547 48.1015 33.2583 47.6944 33.6655C47.2871 34.0726 47.0836 34.2762 46.8481 34.3509C46.649 34.414 46.4353 34.414 46.2361 34.3509C46.0007 34.2762 45.7972 34.0726 45.3899 33.6655C44.9829 33.2583 44.7791 33.0547 44.7046 32.8193C44.6414 32.6202 44.6414 32.4064 44.7046 32.2073C44.7791 31.9719 44.9829 31.7683 45.3899 31.3611Z" fill="#172D44"/>
<path d="M31.9551 30.4383C32.3793 30.0141 33.0671 30.0141 33.4913 30.4383C33.9155 30.8625 33.9155 31.5503 33.4913 31.9745C33.0671 32.3987 32.3793 32.3987 31.9551 31.9745C31.5309 31.5503 31.5309 30.8625 31.9551 30.4383Z" fill="#172D44"/>
<path d="M58.3789 36.7283C58.0986 36.8363 57.8501 37.0848 57.3531 37.5818C56.8561 38.0788 56.6076 38.3272 56.4997 38.6075C56.3733 38.9356 56.3733 39.2989 56.4997 39.6269C56.6076 39.9072 56.8561 40.1557 57.3531 40.6527C57.8501 41.1496 58.0986 41.3981 58.3789 41.5061C58.7069 41.6325 59.0702 41.6325 59.3983 41.5061C59.6786 41.3981 59.9271 41.1496 60.4241 40.6527C60.9211 40.1557 61.1696 39.9072 61.2775 39.6269C61.4039 39.2989 61.4039 38.9356 61.2775 38.6075C61.1696 38.3272 60.9211 38.0788 60.4241 37.5818C59.9271 37.0848 59.6786 36.8363 59.3983 36.7283C59.0702 36.6019 58.7069 36.6019 58.3789 36.7283Z" fill="#172D44"/>
<path d="M56.5223 53.4696C56.9464 53.0453 57.6343 53.0453 58.0584 53.4696C58.4827 53.8936 58.4827 54.5814 58.0584 55.0057C57.6343 55.4299 56.9464 55.4299 56.5223 55.0057C56.098 54.5814 56.098 53.8936 56.5223 53.4696Z" fill="#172D44"/>
<path d="M53.7503 32.0195C54.5729 32.184 55.1063 32.9842 54.9419 33.8068L54.6503 35.2648C54.2489 37.2714 52.8031 38.9091 50.8617 39.5562C49.9547 39.8586 49.2791 40.6238 49.0915 41.5614L48.8001 43.0194C48.6355 43.8421 47.8353 44.3755 47.0127 44.211C46.1903 44.0464 45.6568 43.2462 45.8213 42.4237L46.1129 40.9657C46.5141 38.9591 47.9599 37.3214 49.9012 36.6743C50.8083 36.3719 51.4839 35.6067 51.6714 34.669L51.963 33.211C52.1275 32.3885 52.9276 31.855 53.7503 32.0195Z" fill="#172D44"/>
<path d="M61.282 47.8927C60.5495 47.5725 59.6975 47.707 59.0992 48.2374C57.4604 49.6907 55.0754 49.9323 53.1784 48.8371L52.7474 48.5882C52.021 48.1687 51.7721 47.2398 52.1915 46.5134C52.6109 45.7869 53.5399 45.5378 54.2663 45.9574L54.6973 46.2061C55.462 46.6476 56.4234 46.5502 57.0838 45.9645C58.568 44.6486 60.6815 44.3148 62.4989 45.1093L63.0892 45.3675C63.8578 45.7035 64.2084 46.599 63.8724 47.3676C63.5364 48.1363 62.6409 48.4869 61.8723 48.1509L61.282 47.8927Z" fill="#172D44"/>
<path d="M53.3674 42.1858C53.7916 41.7616 54.4794 41.7616 54.9037 42.1858C55.328 42.6101 55.328 43.2979 54.9037 43.722C54.4794 44.1462 53.7916 44.1462 53.3674 43.722C52.9433 43.2979 52.9433 42.6101 53.3674 42.1858Z" fill="#172D44"/>
</svg>
