<svg width="88" height="102" viewBox="0 0 88 102" fill="none" xmlns="http://www.w3.org/2000/svg">
<rect y="0.954102" width="88" height="100.092" rx="12" fill="#172D44" fill-opacity="0.2"/>
<path d="M59.0178 58.9533L54.0356 57.2451L59.5872 34.8964C61.153 33.8999 62.4342 32.6188 63.573 31.1953C64 30.6259 63.8577 29.6295 63.2883 29.2024C62.7189 28.7754 61.7224 28.9177 61.2954 29.4871C58.8754 32.7611 55.032 34.6117 51.0463 34.6117C50.1922 34.6117 49.6228 35.1811 49.6228 36.0351C49.6228 36.8892 50.1922 37.4586 51.0463 37.4586C52.7544 37.4586 54.605 37.1739 56.1708 36.6045L51.1886 56.391L40.9395 52.8323C40.9395 52.6899 40.9395 52.69 40.9395 52.5476L36.242 43.1526H38.2349C39.089 43.1526 39.6584 42.5832 39.6584 41.7291C39.6584 40.875 39.089 40.3056 38.2349 40.3056H33.6797C31.4021 40.3056 29.4093 39.4515 27.8434 37.8857C27.274 37.3163 26.4199 37.3163 25.8505 37.8857C25.2811 38.4551 25.2811 39.3092 25.8505 39.8786C27.8434 41.8714 30.4057 43.0102 33.1103 43.1526L37.2384 51.5512C34.2491 50.8394 31.1174 51.4088 28.5552 53.2593C25.7082 55.3946 24 58.5262 24 62.085C24 68.206 28.8399 73.0458 34.9609 73.0458H56.7402C60.726 73.0458 64 69.7718 64 65.786C63.8577 62.6544 61.8648 59.9497 59.0178 58.9533ZM49.6228 64.5049H46.6335C46.0641 66.9248 43.7865 68.7754 41.0819 68.7754C37.9502 68.7754 35.3879 66.2131 35.3879 63.0814C35.3879 59.9497 37.9502 57.3875 41.0819 57.3875C43.7865 57.3875 45.9217 59.238 46.6335 61.6579H49.6228C50.4769 61.6579 51.0463 62.2273 51.0463 63.0814C51.0463 63.9355 50.4769 64.5049 49.6228 64.5049Z" fill="#172D44"/>
</svg>
