<svg width="89" height="92" viewBox="0 0 89 92" fill="none" xmlns="http://www.w3.org/2000/svg">
<rect x="0.142822" width="88" height="92" rx="12" fill="#172D44" fill-opacity="0.2"/>
<path d="M61.1799 63.8237H58.2169V66.6948H52.291V63.8237H35.9947V66.6948H30.0687V63.8237H27.1058C25.4687 63.8237 24.1428 62.4963 24.1428 60.8607V35.6755C24.1428 34.0385 25.4687 32.7126 27.1058 32.7126H61.1799C62.8154 32.7126 64.1428 34.04 64.1428 35.6755V60.8607C64.1428 62.4978 62.8154 63.8237 61.1799 63.8237ZM52.2895 46.0459H46.365V40.12H41.9206V46.0459H35.9947V50.4904H41.9206V56.4163H46.365V50.4904H52.2895V46.0459ZM49.328 28.237H40.4391V31.2311H37.4762V29.7807H38.9576V25.3052H50.7473V29.7496H52.291V31.2311H49.328V28.237Z" fill="#172D44"/>
</svg>
