<svg width="175" height="36" viewBox="0 0 175 36" fill="none" xmlns="http://www.w3.org/2000/svg">
<g clip-path="url(#clip0_14_91)">
<path d="M41.856 25.732C41.856 26.3107 41.9027 26.7307 41.996 26.992C42.0893 27.2533 42.2667 27.4307 42.528 27.524C42.808 27.6173 43.2467 27.664 43.844 27.664C43.9 27.664 43.928 27.72 43.928 27.832C43.928 27.944 43.9 28 43.844 28C43.228 28 42.7427 27.9907 42.388 27.972L40.26 27.944L38.188 27.972C37.8147 27.9907 37.3107 28 36.676 28C36.6387 28 36.62 27.944 36.62 27.832C36.62 27.72 36.6387 27.664 36.676 27.664C37.2733 27.664 37.712 27.6173 37.992 27.524C38.272 27.4307 38.4587 27.2533 38.552 26.992C38.664 26.712 38.72 26.292 38.72 25.732V12.768C38.72 12.208 38.664 11.7973 38.552 11.536C38.4587 11.2747 38.272 11.0973 37.992 11.004C37.712 10.892 37.2733 10.836 36.676 10.836C36.6387 10.836 36.62 10.78 36.62 10.668C36.62 10.556 36.6387 10.5 36.676 10.5L38.188 10.528C39.0467 10.5653 39.7373 10.584 40.26 10.584C40.8387 10.584 41.5573 10.5653 42.416 10.528L43.844 10.5C43.9 10.5 43.928 10.556 43.928 10.668C43.928 10.78 43.9 10.836 43.844 10.836C43.2653 10.836 42.836 10.892 42.556 11.004C42.276 11.116 42.0893 11.312 41.996 11.592C41.9027 11.8533 41.856 12.264 41.856 12.824V25.732ZM63.6903 10.5C63.7463 10.5 63.7743 10.556 63.7743 10.668C63.7743 10.78 63.7463 10.836 63.6903 10.836C63.0183 10.836 62.3743 11.1347 61.7583 11.732C61.1423 12.3293 60.6476 13.132 60.2743 14.14L55.0943 27.972C55.0756 28.0467 54.973 28.084 54.7863 28.084C54.5996 28.084 54.497 28.0467 54.4783 27.972L47.3383 12.824C47.0023 12.152 46.6663 11.6573 46.3303 11.34C45.9943 11.004 45.621 10.836 45.2103 10.836C45.1543 10.836 45.1263 10.78 45.1263 10.668C45.1263 10.556 45.1543 10.5 45.2103 10.5C45.4903 10.5 45.6863 10.5093 45.7983 10.528C46.1716 10.5653 46.657 10.584 47.2543 10.584C48.8596 10.584 50.2223 10.5653 51.3423 10.528C51.641 10.5093 52.0143 10.5 52.4623 10.5C52.5183 10.5 52.5463 10.556 52.5463 10.668C52.5463 10.78 52.5183 10.836 52.4623 10.836C51.9023 10.836 51.4636 10.9573 51.1463 11.2C50.8476 11.424 50.6983 11.7507 50.6983 12.18C50.6983 12.4973 50.801 12.88 51.0063 13.328L56.1023 24.192L54.7863 26.488L59.4903 14.056C59.677 13.5333 59.7703 13.0853 59.7703 12.712C59.7703 12.1333 59.593 11.676 59.2383 11.34C58.9023 11.004 58.4076 10.836 57.7543 10.836C57.6983 10.836 57.6703 10.78 57.6703 10.668C57.6703 10.556 57.6983 10.5 57.7543 10.5L59.1263 10.528C59.9103 10.5653 60.6103 10.584 61.2263 10.584C61.581 10.584 62.0196 10.5653 62.5423 10.528L63.6903 10.5ZM64.7027 28C64.6467 28 64.6187 27.944 64.6187 27.832C64.6187 27.72 64.6467 27.664 64.7027 27.664C65.3 27.664 65.7294 27.6173 65.9907 27.524C66.2707 27.4307 66.4574 27.2533 66.5507 26.992C66.644 26.712 66.6907 26.292 66.6907 25.732V12.768C66.6907 12.208 66.644 11.7973 66.5507 11.536C66.4574 11.2747 66.2707 11.0973 65.9907 11.004C65.7107 10.892 65.2814 10.836 64.7027 10.836C64.6467 10.836 64.6187 10.78 64.6187 10.668C64.6187 10.556 64.6467 10.5 64.7027 10.5H76.5747C76.7614 10.5 76.8547 10.584 76.8547 10.752L76.9107 14.476C76.9107 14.5133 76.8547 14.5413 76.7427 14.56C76.6494 14.5787 76.5934 14.56 76.5747 14.504C76.276 13.4213 75.772 12.6187 75.0627 12.096C74.3534 11.5733 73.42 11.312 72.2627 11.312H71.4227C70.8627 11.312 70.452 11.4333 70.1907 11.676C69.9294 11.9187 69.7987 12.292 69.7987 12.796V25.62C69.7987 26.1613 69.9014 26.5627 70.1067 26.824C70.312 27.0853 70.6387 27.216 71.0867 27.216H72.0107C73.4667 27.216 74.6334 26.9173 75.5107 26.32C76.388 25.7227 77.032 24.7987 77.4427 23.548C77.4427 23.5107 77.48 23.492 77.5547 23.492C77.6107 23.492 77.6574 23.5107 77.6947 23.548C77.7507 23.5667 77.7787 23.5853 77.7787 23.604C77.592 25.06 77.4987 26.3853 77.4987 27.58C77.4987 27.7293 77.4707 27.8413 77.4147 27.916C77.3587 27.972 77.2467 28 77.0787 28H64.7027ZM75.5107 21.756C75.5107 20.9907 75.212 20.3933 74.6147 19.964C74.036 19.516 73.196 19.292 72.0947 19.292H68.3147V18.508H72.1227C73.2054 18.508 74.036 18.3213 74.6147 17.948C75.1934 17.5747 75.4827 17.052 75.4827 16.38C75.4827 16.324 75.5294 16.296 75.6227 16.296C75.7347 16.296 75.7907 16.324 75.7907 16.38L75.7627 18.9L75.7907 20.244C75.828 20.8787 75.8467 21.3827 75.8467 21.756C75.8467 21.7933 75.7907 21.812 75.6787 21.812C75.5667 21.812 75.5107 21.7933 75.5107 21.756ZM93.8439 28C93.4146 28 92.6212 27.1973 91.4639 25.592C90.3066 23.9867 88.9066 21.7373 87.2639 18.844L89.8399 18.032C91.3892 20.4773 92.6772 22.3813 93.7039 23.744C94.7492 25.1067 95.6732 26.1053 96.4759 26.74C97.2786 27.356 98.0626 27.664 98.8279 27.664C98.8652 27.664 98.8839 27.72 98.8839 27.832C98.8839 27.944 98.8652 28 98.8279 28H93.8439ZM87.4599 10.416C89.1772 10.416 90.5026 10.7333 91.4359 11.368C92.3879 11.984 92.8639 12.852 92.8639 13.972C92.8639 14.8867 92.5746 15.7547 91.9959 16.576C91.4172 17.3787 90.6612 18.032 89.7279 18.536C88.7946 19.0213 87.8332 19.264 86.8439 19.264C86.1159 19.264 85.6026 19.2547 85.3039 19.236V25.732C85.3039 26.3107 85.3506 26.7307 85.4439 26.992C85.5372 27.2533 85.7146 27.4307 85.9759 27.524C86.2559 27.6173 86.6946 27.664 87.2919 27.664C87.3292 27.664 87.3479 27.72 87.3479 27.832C87.3479 27.944 87.3292 28 87.2919 28C86.6759 28 86.1906 27.9907 85.8359 27.972L83.7079 27.944L81.6639 27.972C81.2906 27.9907 80.7866 28 80.1519 28C80.0959 28 80.0679 27.944 80.0679 27.832C80.0679 27.72 80.0959 27.664 80.1519 27.664C80.7492 27.664 81.1786 27.6173 81.4399 27.524C81.7199 27.4307 81.9066 27.2533 81.9999 26.992C82.1119 26.712 82.1679 26.292 82.1679 25.732V12.768C82.1679 12.208 82.1212 11.7973 82.0279 11.536C81.9346 11.2747 81.7479 11.0973 81.4679 11.004C81.1879 10.892 80.7586 10.836 80.1799 10.836C80.1426 10.836 80.1239 10.78 80.1239 10.668C80.1239 10.556 80.1426 10.5 80.1799 10.5L81.6639 10.528C82.5226 10.5653 83.2039 10.584 83.7079 10.584C84.2679 10.584 84.8652 10.556 85.4999 10.5C85.7052 10.4813 85.9666 10.4627 86.2839 10.444C86.6199 10.4253 87.0119 10.416 87.4599 10.416ZM89.6439 15.036C89.6439 13.5053 89.4199 12.4507 88.9719 11.872C88.5239 11.2933 87.8799 11.004 87.0399 11.004C86.4052 11.004 85.9572 11.144 85.6959 11.424C85.4346 11.704 85.3039 12.1707 85.3039 12.824V18.424C85.7519 18.4987 86.2932 18.536 86.9279 18.536C87.5999 18.536 88.1319 18.4333 88.5239 18.228C88.9159 18.0227 89.1959 17.668 89.3639 17.164C89.5506 16.66 89.6439 15.9507 89.6439 15.036ZM104.519 25.62C104.519 26.1053 104.556 26.46 104.631 26.684C104.705 26.8893 104.845 27.0293 105.051 27.104C105.275 27.1787 105.629 27.216 106.115 27.216H107.067C108.523 27.216 109.783 26.8333 110.847 26.068C111.911 25.284 112.62 24.2293 112.975 22.904C112.975 22.8667 113.012 22.848 113.087 22.848C113.124 22.848 113.161 22.8667 113.199 22.904C113.255 22.9227 113.283 22.9413 113.283 22.96C113.115 24.808 113.031 26.348 113.031 27.58C113.031 27.7293 112.993 27.8413 112.919 27.916C112.863 27.972 112.76 28 112.611 28H99.3947C99.3574 28 99.3387 27.944 99.3387 27.832C99.3387 27.72 99.3574 27.664 99.3947 27.664C99.992 27.664 100.421 27.6173 100.683 27.524C100.963 27.4307 101.149 27.2533 101.243 26.992C101.355 26.712 101.411 26.292 101.411 25.732V12.768C101.411 12.208 101.355 11.7973 101.243 11.536C101.149 11.2747 100.963 11.0973 100.683 11.004C100.403 10.892 99.9734 10.836 99.3947 10.836C99.3574 10.836 99.3387 10.78 99.3387 10.668C99.3387 10.556 99.3574 10.5 99.3947 10.5L100.823 10.528C101.681 10.5653 102.391 10.584 102.951 10.584C103.511 10.584 104.22 10.5653 105.079 10.528L106.507 10.5C106.563 10.5 106.591 10.556 106.591 10.668C106.591 10.78 106.563 10.836 106.507 10.836C105.928 10.836 105.499 10.892 105.219 11.004C104.939 11.0973 104.752 11.284 104.659 11.564C104.565 11.8253 104.519 12.236 104.519 12.796V25.62ZM120.337 18.844H126.105L126.301 19.628H119.917L120.337 18.844ZM133.889 27.664C133.982 27.664 134.029 27.72 134.029 27.832C134.029 27.944 133.982 28 133.889 28C133.515 28 132.937 27.9813 132.153 27.944C131.331 27.9067 130.743 27.888 130.389 27.888C129.922 27.888 129.353 27.9067 128.681 27.944C128.046 27.9813 127.542 28 127.169 28C127.094 28 127.057 27.944 127.057 27.832C127.057 27.72 127.094 27.664 127.169 27.664C127.654 27.664 127.999 27.6173 128.204 27.524C128.429 27.412 128.541 27.2253 128.541 26.964C128.541 26.6467 128.354 26.1147 127.981 25.368L122.297 14.14L123.669 11.732L118.097 24.024C117.854 24.5653 117.733 25.0693 117.733 25.536C117.733 26.208 117.966 26.7307 118.433 27.104C118.918 27.4773 119.562 27.664 120.365 27.664C120.458 27.664 120.505 27.72 120.505 27.832C120.505 27.944 120.458 28 120.365 28C120.029 28 119.543 27.9813 118.909 27.944C118.199 27.9067 117.583 27.888 117.061 27.888C116.557 27.888 115.95 27.9067 115.241 27.944C114.606 27.9813 114.093 28 113.7 28C113.626 28 113.588 27.944 113.588 27.832C113.588 27.72 113.626 27.664 113.7 27.664C114.223 27.664 114.662 27.5613 115.017 27.356C115.371 27.132 115.726 26.7493 116.081 26.208C116.435 25.648 116.855 24.8267 117.341 23.744L123.417 10.388C123.454 10.332 123.538 10.304 123.669 10.304C123.818 10.304 123.902 10.332 123.921 10.388L130.921 24.164C131.574 25.4893 132.115 26.404 132.545 26.908C132.974 27.412 133.422 27.664 133.889 27.664ZM137.411 11.144L138.251 11.2V24.444C138.251 25.4333 138.457 26.2173 138.867 26.796C139.278 27.3747 139.847 27.664 140.575 27.664C140.613 27.664 140.631 27.72 140.631 27.832C140.631 27.944 140.613 28 140.575 28C140.053 28 139.651 27.9907 139.371 27.972L137.859 27.944L136.123 27.972C135.806 27.9907 135.349 28 134.751 28C134.695 28 134.667 27.944 134.667 27.832C134.667 27.72 134.695 27.664 134.751 27.664C135.573 27.664 136.217 27.3747 136.683 26.796C137.169 26.2173 137.411 25.4333 137.411 24.444V11.144ZM151.691 28.42C151.691 28.476 151.645 28.5133 151.551 28.532C151.477 28.5507 151.421 28.5413 151.383 28.504L137.579 12.796C136.926 12.0493 136.366 11.536 135.899 11.256C135.433 10.976 134.957 10.836 134.471 10.836C134.434 10.836 134.415 10.78 134.415 10.668C134.415 10.556 134.434 10.5 134.471 10.5L135.647 10.528C135.89 10.5467 136.245 10.556 136.711 10.556L138.839 10.528C139.101 10.5093 139.418 10.5 139.791 10.5C139.941 10.5 140.053 10.5373 140.127 10.612C140.202 10.6867 140.333 10.8453 140.519 11.088C140.837 11.5173 141.061 11.8067 141.191 11.956L151.467 23.8L151.691 28.42ZM151.691 28.42L150.879 27.58V14.084C150.879 13.076 150.674 12.2827 150.263 11.704C149.853 11.1253 149.283 10.836 148.555 10.836C148.518 10.836 148.499 10.78 148.499 10.668C148.499 10.556 148.518 10.5 148.555 10.5L149.759 10.528C150.357 10.5653 150.861 10.584 151.271 10.584C151.645 10.584 152.167 10.5653 152.839 10.528L154.099 10.5C154.137 10.5 154.155 10.556 154.155 10.668C154.155 10.78 154.137 10.836 154.099 10.836C153.353 10.836 152.765 11.1347 152.335 11.732C151.906 12.3107 151.691 13.0947 151.691 14.084V28.42ZM163.573 28.112C162.976 28.112 162.267 28.084 161.445 28.028C161.147 28.0093 160.773 27.9907 160.325 27.972C159.896 27.9533 159.411 27.944 158.869 27.944L156.797 27.972C156.424 27.9907 155.92 28 155.285 28C155.248 28 155.229 27.944 155.229 27.832C155.229 27.72 155.248 27.664 155.285 27.664C155.883 27.664 156.321 27.6173 156.601 27.524C156.881 27.4307 157.068 27.2533 157.161 26.992C157.273 26.712 157.329 26.292 157.329 25.732V12.768C157.329 12.208 157.273 11.7973 157.161 11.536C157.068 11.2747 156.881 11.0973 156.601 11.004C156.34 10.892 155.92 10.836 155.341 10.836C155.285 10.836 155.257 10.78 155.257 10.668C155.257 10.556 155.285 10.5 155.341 10.5L156.825 10.528C157.684 10.5653 158.365 10.584 158.869 10.584C159.635 10.584 160.419 10.556 161.221 10.5C162.192 10.4627 162.845 10.444 163.181 10.444C165.067 10.444 166.737 10.8173 168.193 11.564C169.668 12.3107 170.807 13.328 171.609 14.616C172.412 15.904 172.813 17.3507 172.813 18.956C172.813 20.7667 172.393 22.372 171.553 23.772C170.732 25.1533 169.612 26.2267 168.193 26.992C166.793 27.7387 165.253 28.112 163.573 28.112ZM163.293 27.468C164.488 27.468 165.543 27.1693 166.457 26.572C167.372 25.956 168.081 25.0507 168.585 23.856C169.108 22.6613 169.369 21.2333 169.369 19.572C169.369 17.9853 169.127 16.548 168.641 15.26C168.156 13.9533 167.465 12.9267 166.569 12.18C165.673 11.4333 164.637 11.06 163.461 11.06C162.304 11.06 161.511 11.172 161.081 11.396C160.652 11.62 160.437 12.096 160.437 12.824V25.424C160.437 26.1707 160.633 26.7027 161.025 27.02C161.417 27.3187 162.173 27.468 163.293 27.468Z" fill="#EDEEEA"/>
<path d="M24.2679 32C23.6518 32 22.5134 30.8588 20.8527 28.5764C19.192 26.2941 17.183 23.0961 14.8259 18.9825L18.5223 17.828C20.7455 21.3047 22.5938 24.0117 24.067 25.949C25.567 27.8864 26.8929 29.3063 28.0446 30.2086C29.1964 31.0844 30.3214 31.5223 31.4196 31.5223C31.4732 31.5223 31.5 31.6019 31.5 31.7611C31.5 31.9204 31.4732 32 31.4196 32H24.2679ZM15.1071 7C17.5714 7 19.4732 7.45117 20.8125 8.3535C22.1786 9.2293 22.8616 10.4634 22.8616 12.0557C22.8616 13.3562 22.4464 14.5902 21.6161 15.758C20.7857 16.8991 19.7009 17.828 18.3616 18.5446C17.0223 19.2346 15.6429 19.5796 14.2232 19.5796C13.1786 19.5796 12.442 19.5663 12.0134 19.5398V28.7755C12.0134 29.5982 12.0804 30.1953 12.2143 30.5669C12.3482 30.9384 12.6027 31.1905 12.9777 31.3232C13.3795 31.4559 14.0089 31.5223 14.8661 31.5223C14.9196 31.5223 14.9464 31.6019 14.9464 31.7611C14.9464 31.9204 14.9196 32 14.8661 32C13.9821 32 13.2857 31.9867 12.7768 31.9602L9.72321 31.9204L6.79018 31.9602C6.25446 31.9867 5.53125 32 4.62054 32C4.54018 32 4.5 31.9204 4.5 31.7611C4.5 31.6019 4.54018 31.5223 4.62054 31.5223C5.47768 31.5223 6.09375 31.4559 6.46875 31.3232C6.87054 31.1905 7.13839 30.9384 7.27232 30.5669C7.43304 30.1688 7.51339 29.5717 7.51339 28.7755V10.3439C7.51339 9.54777 7.44643 8.96391 7.3125 8.59236C7.17857 8.22081 6.91071 7.96868 6.50893 7.83599C6.10714 7.67675 5.49107 7.59713 4.66071 7.59713C4.60714 7.59713 4.58036 7.51752 4.58036 7.35828C4.58036 7.19905 4.60714 7.11943 4.66071 7.11943L6.79018 7.15924C8.02232 7.21231 9 7.23885 9.72321 7.23885C10.5268 7.23885 11.3839 7.19904 12.2946 7.11943C12.5893 7.09289 12.9643 7.06635 13.4196 7.03981C13.9018 7.01327 14.4643 7 15.1071 7ZM18.2411 13.5685C18.2411 11.3923 17.9196 9.89278 17.2768 9.07006C16.6339 8.24734 15.7098 7.83599 14.5045 7.83599C13.5938 7.83599 12.9509 8.03503 12.5759 8.43312C12.2009 8.83121 12.0134 9.49469 12.0134 10.4236V18.3854C12.6562 18.4915 13.433 18.5446 14.3438 18.5446C15.308 18.5446 16.0714 18.3986 16.6339 18.1067C17.1964 17.8148 17.5982 17.3105 17.8393 16.5939C18.1071 15.8774 18.2411 14.8689 18.2411 13.5685Z" fill="#D6A829"/>
<path d="M16.5 0.5C25.0604 0.5 32 7.43959 32 16V33.5H1V16C1 7.43959 7.93959 0.5 16.5 0.5Z" stroke="#D6A829"/>
</g>
<defs>
<clipPath id="clip0_14_91">
<rect width="174" height="36" fill="white" transform="translate(0.5)"/>
</clipPath>
</defs>
</svg>
