<svg width="89" height="80" viewBox="0 0 89 80" fill="none" xmlns="http://www.w3.org/2000/svg">
<rect x="0.285645" y="0.158691" width="88" height="79.6828" rx="12" fill="#172D44" fill-opacity="0.2"/>
<path d="M63.169 35.6588H60.9712C60.8356 34.4547 60.1941 33.4021 59.2643 32.7189V32.0289C59.2643 29.8949 57.5282 28.1587 55.3941 28.1587H53.7135C51.5793 28.1587 49.8433 29.8949 49.8433 32.0289V34.9862C49.7645 34.707 49.6579 34.4394 49.5264 34.1866V32.0289C49.5264 29.8949 47.7903 28.1587 45.6562 28.1587H43.9755C41.8415 28.1587 40.1053 29.8949 40.1053 32.0289V34.1866C39.9738 34.4394 39.8672 34.7069 39.7884 34.9862V32.0289C39.7884 29.8949 38.0522 28.1587 35.9182 28.1587H34.2376C32.1035 28.1587 30.3673 29.8949 30.3673 32.0289V32.719C29.4376 33.4022 28.7959 34.4548 28.6605 35.6588H25.4021C24.7864 35.6588 24.2856 36.1596 24.2856 36.7752V49.1238C24.2856 49.6867 24.7421 50.1431 25.3049 50.1431C25.8678 50.1431 26.3242 49.6867 26.3242 49.1238V40.2168H28.6329V43.5784C28.6329 44.1413 29.0893 44.5977 29.6522 44.5977H30.3673V45.1449C29.8125 45.1543 29.3654 45.6063 29.3654 46.1633C29.3654 46.7204 29.8125 47.1723 30.3673 47.1817V49.1236V50.8221C30.3673 51.3851 30.8237 51.8414 31.3866 51.8414C31.9495 51.8414 32.4059 51.3851 32.4059 50.8221V49.1237V47.1826H35.2343V49.1237V50.8222C35.2343 51.3852 35.6907 51.8415 36.2536 51.8415C36.8164 51.8415 37.2729 51.3852 37.2729 50.8222V49.1237V47.1818C37.8277 47.1724 38.2748 46.7205 38.2748 46.1634C38.2748 45.6064 37.8277 45.1543 37.2729 45.145V44.5978H37.9881C38.551 44.5978 39.0074 44.1414 39.0074 43.5785V40.2169H39.6287V43.5785C39.6287 44.1414 40.0851 44.5978 40.648 44.5978H41.3631V45.145C40.8083 45.1544 40.3612 45.6064 40.3612 46.1634C40.3612 46.7205 40.8083 47.1724 41.3631 47.1818V49.1237V50.8222C41.3631 51.3852 41.8195 51.8415 42.3824 51.8415C42.9453 51.8415 43.4017 51.3852 43.4017 50.8222V49.1237V47.1826H46.2301V49.1237V50.8222C46.2301 51.3852 46.6865 51.8415 47.2494 51.8415C47.8122 51.8415 48.2687 51.3852 48.2687 50.8222V49.1237V47.1818C48.8235 47.1724 49.2705 46.7205 49.2705 46.1634C49.2705 45.6064 48.8235 45.1544 48.2687 45.145V44.5978H48.9839C49.5468 44.5978 50.0032 44.1414 50.0032 43.5785V40.2169H50.6245V43.5785C50.6245 44.1414 51.0809 44.5978 51.6438 44.5978H52.3589V45.145C51.8041 45.1544 51.357 45.6064 51.357 46.1634C51.357 46.7205 51.8041 47.1724 52.3589 47.1818V49.1237V50.8222C52.3589 51.3852 52.8154 51.8415 53.3782 51.8415C53.9411 51.8415 54.3975 51.3852 54.3975 50.8222V49.1237V47.1826H57.2259V49.1237V50.8222C57.2259 51.3852 57.6823 51.8415 58.2452 51.8415C58.808 51.8415 59.2645 51.3852 59.2645 50.8222V49.1237V47.1818C59.8193 47.1724 60.2663 46.7205 60.2663 46.1634C60.2663 45.6064 59.8193 45.1544 59.2645 45.145V44.5978H59.9797C60.5426 44.5978 60.999 44.1414 60.999 43.5785V40.2169H62.247V49.1239C62.247 49.6868 62.7035 50.1432 63.2663 50.1432C63.8292 50.1432 64.2856 49.6868 64.2856 49.1239V36.7752C64.2854 36.1596 63.7847 35.6588 63.169 35.6588ZM57.2257 44.5977V45.144H54.3973V44.5977H57.2257ZM58.9602 42.5591H52.663V36.1357C52.663 34.9228 53.6499 33.936 54.8627 33.936H56.7605C57.9733 33.936 58.9602 34.9228 58.9602 36.1357V42.5591ZM43.9755 30.1973H45.6562C46.6661 30.1973 47.4878 31.019 47.4878 32.0289V32.2649C46.9609 32.0295 46.3782 31.8975 45.7648 31.8975H43.867C43.2536 31.8975 42.6709 32.0295 42.144 32.2649V32.0289C42.1439 31.0188 42.9655 30.1973 43.9755 30.1973ZM55.3941 30.1973C56.3682 30.1973 57.1649 30.9623 57.2203 31.9229C57.0691 31.9065 56.9158 31.8975 56.7604 31.8975H54.8626C53.7014 31.8975 52.6481 32.3672 51.8819 33.1261V32.0289C51.8819 31.019 52.7035 30.1973 53.7135 30.1973H55.3941ZM39.0074 37.6974H39.6287V38.1782H39.0074V37.6974ZM50.0031 37.6974H50.6244V38.1782H50.0031V37.6974ZM37.7498 32.0288V33.126C36.9835 32.3671 35.9302 31.8974 34.769 31.8974H32.8712C32.7158 31.8974 32.5624 31.9064 32.4112 31.9228C32.4666 30.9623 33.2633 30.1972 34.2375 30.1972H35.9181C36.9281 30.1973 37.7498 31.0188 37.7498 32.0288ZM26.3242 37.6974H28.6329V38.1782H26.3242V37.6974ZM35.2343 44.5977V45.144H32.4059V44.5977H35.2343ZM36.9688 42.5591H30.6716V36.1357C30.6716 34.9228 31.6584 33.936 32.8713 33.936H34.769C35.9819 33.936 36.9688 34.9228 36.9688 36.1357V42.5591ZM46.23 44.5977V45.144H43.4016V44.5977H46.23ZM47.9645 42.5591H41.6673V36.1357C41.6673 34.9228 42.6542 33.936 43.867 33.936H45.7648C46.9776 33.936 47.9645 34.9228 47.9645 36.1357V42.5591ZM60.9988 37.6974H62.2468V38.1782H60.9988V37.6974Z" fill="#172D44"/>
</svg>
