<svg width="15" height="14" viewBox="0 0 15 14" fill="none" xmlns="http://www.w3.org/2000/svg">
<path d="M10.2331 12.5213H2.61307C2.42415 12.5259 2.24109 12.4555 2.10385 12.3256C1.96662 12.1957 1.88636 12.0168 1.88062 11.8279V5.58008" stroke="#00032E" stroke-opacity="0.5"/>
<path d="M11.6489 5.6217V8.3098" stroke="#00032E" stroke-opacity="0.5"/>
<path d="M5.36206 12.5041V8.33643H8.18935V12.5041" stroke="#00032E" stroke-opacity="0.5"/>
<path d="M1.01367 3.62925C1.01367 3.62925 0.745106 5.52386 2.58846 5.8266C2.85759 5.86693 3.13242 5.84377 3.39101 5.75899C3.6496 5.67421 3.88479 5.53015 4.07779 5.3383C4.25121 5.52246 4.46122 5.66831 4.69434 5.76649C4.92746 5.86467 5.17853 5.91302 5.43144 5.90842C5.68436 5.90382 5.93351 5.84638 6.16291 5.73979C6.3923 5.6332 6.59687 5.47981 6.76348 5.28947C7.07487 5.64444 7.51331 5.86278 7.98424 5.89741C8.50224 5.85568 8.99923 5.67427 9.4223 5.37248C9.56846 5.53134 9.74475 5.65956 9.94091 5.74968C10.1371 5.83979 10.3492 5.89001 10.5649 5.89741C10.8488 5.89834 11.1295 5.83738 11.3875 5.71876C11.6454 5.60015 11.8744 5.42673 12.0584 5.21059C12.2425 4.99446 12.3772 4.74079 12.4533 4.46727C12.5293 4.19374 12.5448 3.90693 12.4986 3.62681L11.3511 1.15845C11.3341 1.11127 11.3029 1.07048 11.2618 1.04165C11.2207 1.01282 11.1718 0.997336 11.1216 0.997314H2.36872C2.31855 0.997336 2.26959 1.01282 2.22853 1.04165C2.18746 1.07048 2.15628 1.11127 2.13922 1.15845L1.01367 3.62925Z" stroke="#00032E" stroke-opacity="0.5"/>
<path d="M1.01367 3.62927H12.5108" stroke="#00032E" stroke-opacity="0.5"/>
<path d="M4.09009 3.62925V0.997314" stroke="#00032E" stroke-opacity="0.5"/>
<path d="M6.77563 3.62925V0.997314" stroke="#00032E" stroke-opacity="0.5"/>
<path d="M9.4541 3.62925V0.997314" stroke="#00032E" stroke-opacity="0.5"/>
<path d="M11.6488 12.9974C12.9433 12.9974 13.9927 11.948 13.9927 10.6535C13.9927 9.35907 12.9433 8.30969 11.6488 8.30969C10.3543 8.30969 9.30493 9.35907 9.30493 10.6535C9.30493 11.948 10.3543 12.9974 11.6488 12.9974Z" stroke="#00032E" stroke-opacity="0.5"/>
<path d="M11.6489 9.16174V10.7267L12.5206 11.3957" stroke="#00032E" stroke-opacity="0.5"/>
</svg>
