<svg width="89" height="92" viewBox="0 0 89 92" fill="none" xmlns="http://www.w3.org/2000/svg">
<rect x="0.357178" width="88" height="92" rx="12" fill="#172D44" fill-opacity="0.2"/>
<path d="M50.5254 57.0281C51.2731 57.0281 51.7715 56.5297 51.7715 55.782C51.7715 55.0343 51.2731 54.5359 50.5254 54.5359H45.541V48.1808C46.0394 48.0561 46.4133 47.9315 46.7871 47.6823V40.7041C46.7871 40.0811 46.6625 39.5826 46.5379 38.9596L44.2949 28.9907L42.0519 38.835C41.9273 39.458 41.8027 40.0811 41.8027 40.5795V47.5577C42.1765 47.8069 42.5503 47.9315 43.0488 48.0561V54.5359H38.0643C37.3167 54.5359 36.8182 55.0343 36.8182 55.782C36.8182 56.5297 37.3167 57.0281 38.0643 57.0281H43.0488V63.2586C43.0488 64.0063 43.5472 64.5047 44.2949 64.5047C45.0425 64.5047 45.541 64.0063 45.541 63.2586V57.0281H50.5254Z" fill="#172D44"/>
<path d="M36.8182 58.2742H31.8338C31.7092 57.1527 31.46 56.0312 30.9615 54.9097L30.4631 53.9129C30.2139 53.2898 29.4662 53.0406 28.8432 53.4144C28.2201 53.6636 27.9709 54.4113 28.3447 55.0344L28.8432 56.0312C29.84 58.1496 29.7154 60.6418 28.4693 62.511C28.0955 63.134 28.2201 63.8817 28.8432 64.2555C28.8432 64.3801 29.0924 64.5048 29.3416 64.5048C29.7154 64.5048 30.0893 64.2555 30.3385 64.0063C30.9615 63.0094 31.46 61.8879 31.7092 60.7664H31.8338H35.5721V63.2587C35.5721 64.0063 36.0706 64.5048 36.8182 64.5048C37.5659 64.5048 38.0643 64.0063 38.0643 63.2587V59.5203C38.0643 58.7727 37.5659 58.2742 36.8182 58.2742Z" fill="#172D44"/>
<path d="M60.3697 55.0344C60.6189 54.4113 60.3697 53.6636 59.8712 53.4144C59.2482 53.1652 58.5005 53.4144 58.2513 53.9129L57.7528 54.9097C57.2544 55.9066 56.8806 57.1527 56.8806 58.2742H51.8961C51.1485 58.2742 50.65 58.7727 50.65 59.5203V63.2587C50.65 64.0063 51.1485 64.5048 51.8961 64.5048C52.6438 64.5048 53.1422 64.0063 53.1422 63.2587V60.7664H56.8806H57.0052C57.2544 61.8879 57.6282 63.0094 58.3759 64.0063C58.6251 64.3802 58.9989 64.5048 59.3728 64.5048C59.622 64.5048 59.8712 64.3802 60.1204 64.2555C60.7435 63.8817 60.8681 63.134 60.4943 62.511C59.2482 60.5172 58.9989 58.025 60.1204 56.0312L60.3697 55.0344Z" fill="#172D44"/>
<path d="M34.326 41.2024V47.5575C35.0737 47.9314 35.946 48.3052 36.8183 48.3052C37.6905 48.3052 38.5628 48.056 39.3105 47.5575V40.5794C39.3105 39.7071 39.4351 38.9594 39.6843 38.2118L41.6781 29.489L35.1983 38.9594C34.5753 39.7071 34.326 40.4547 34.326 41.2024Z" fill="#172D44"/>
<path d="M31.8338 47.6823V41.2025C31.8338 39.8318 32.3323 38.5857 33.0799 37.5888L39.9335 27.4954L25.8525 37.838C24.9802 38.5857 24.3572 39.7072 24.3572 40.8287V43.0717C24.3572 45.8131 26.4756 48.1807 29.0924 48.3053C30.0893 48.3053 30.9615 48.0561 31.8338 47.6823Z" fill="#172D44"/>
<path d="M51.7716 48.3052C52.6438 48.3052 53.5161 48.056 54.2638 47.5575V41.2024C54.2638 40.4547 54.0145 39.7071 53.5161 39.084L46.9117 29.489L48.9055 38.2118C49.1547 38.9594 49.1547 39.7071 49.1547 40.5794V47.5575C50.027 48.056 50.8993 48.3052 51.7716 48.3052Z" fill="#172D44"/>
<path d="M62.7372 37.838L48.6562 27.4954L55.6344 37.5888C56.3821 38.5857 56.8806 39.8318 56.8806 41.2025V47.6823C57.7528 48.1807 58.6251 48.4299 59.622 48.3053C62.2388 48.1807 64.3572 45.9377 64.3572 43.0717V40.8287C64.2326 39.7072 63.6095 38.5857 62.7372 37.838Z" fill="#172D44"/>
</svg>
