<svg width="89" height="92" viewBox="0 0 89 92" fill="none" xmlns="http://www.w3.org/2000/svg">
<rect x="0.571533" width="88" height="92" rx="12" fill="#172D44" fill-opacity="0.2"/>
<path d="M34.8917 60.2094H48.7784C50.167 60.2094 51.2968 59.0796 51.2968 57.691V30.5184C51.2968 29.1298 50.167 28 48.7784 28H34.8917C33.503 28 32.3733 29.1298 32.3733 30.5184V57.691C32.3733 59.0797 33.5031 60.2094 34.8917 60.2094ZM35.0605 32.998C35.0605 32.3648 35.5786 31.8467 36.2118 31.8467H47.4583C48.0915 31.8467 48.6096 32.3648 48.6096 32.998V39.4355C48.6096 39.9818 48.2236 40.4416 47.7112 40.5577C46.9047 39.2365 45.2436 38.2392 43.2268 37.9197L44.7626 35.7301C44.968 35.4372 44.8972 35.0334 44.6042 34.8281C44.3115 34.6229 43.9076 34.6935 43.702 34.9864L41.7202 37.812C39.1415 37.8446 36.9303 38.9663 35.9589 40.5577C35.4465 40.4416 35.0605 39.9818 35.0605 39.4355V32.998Z" fill="#172D44"/>
<path d="M51.1178 61.6494H32.552C31.903 61.6494 31.3768 62.1755 31.3768 62.8247C31.3768 63.4739 31.903 64 32.552 64H51.1178C51.7671 64 52.2932 63.4738 52.2932 62.8247C52.2932 62.1755 51.7671 61.6494 51.1178 61.6494Z" fill="#172D44"/>
<path d="M55.8378 36.2254H55.6066V36.1773C55.6066 35.8069 55.3897 35.3792 55.091 35.1603L54.0234 34.3783C54.0007 34.3616 53.9768 34.3483 53.9533 34.3341V33.4634C53.9533 32.9629 53.5551 32.5557 53.0659 32.5557H52.7228C52.422 32.5557 52.1782 32.7994 52.1782 33.1004C52.1782 33.4011 52.422 33.6451 52.7228 33.6451H52.8641V34.9663V35.2789V38.4365C52.8641 38.937 53.2712 39.3443 53.7719 39.3443H54.6988C55.1995 39.3443 55.6066 38.937 55.6066 38.4365V37.1773H55.8378C56.3761 37.1773 56.814 37.6152 56.814 38.1536V52.4915C56.814 53.0298 56.3761 53.4677 55.8378 53.4677H55.5077V52.8233C55.5077 52.3858 55.1517 52.0298 54.7142 52.0298H53.7565C53.319 52.0298 52.963 52.3858 52.963 52.8233V54.7917C52.963 55.2292 53.319 55.5852 53.7565 55.5852H54.7142C55.1517 55.5852 55.5077 55.2292 55.5077 54.7917V54.42H55.8378C56.9012 54.42 57.7662 53.555 57.7662 52.4916V38.1537C57.7662 37.0904 56.9012 36.2254 55.8378 36.2254Z" fill="#172D44"/>
</svg>
