<svg width="89" height="92" viewBox="0 0 89 92" fill="none" xmlns="http://www.w3.org/2000/svg">
<rect x="0.428589" width="88" height="92" rx="12" fill="#172D44" fill-opacity="0.2"/>
<path d="M41.3033 41C40.9577 41 40.6783 41.2794 40.6783 41.625V51.6248C40.6783 51.9705 40.9577 52.2498 41.3033 52.2498C41.649 52.2498 41.9283 51.9705 41.9283 51.6248V41.625C41.9283 41.2794 41.649 41 41.3033 41Z" fill="#172D44"/>
<path d="M47.5532 41C47.2076 41 46.9282 41.2794 46.9282 41.625V51.6248C46.9282 51.9705 47.2076 52.2498 47.5532 52.2498C47.8988 52.2498 48.1782 51.9705 48.1782 51.6248V41.625C48.1782 41.2794 47.8988 41 47.5532 41Z" fill="#172D44"/>
<path d="M53.8032 41C53.4576 41 53.1782 41.2794 53.1782 41.625V51.6248C53.1782 51.9705 53.4576 52.2498 53.8032 52.2498C54.1488 52.2498 54.4282 51.9705 54.4282 51.6248V41.625C54.4282 41.2794 54.1488 41 53.8032 41Z" fill="#172D44"/>
<path d="M62.2256 36.0001H33.8403L31.9285 27.8752C31.6547 26.7815 30.9197 26.0002 29.8841 26.0002H26.3036C25.268 26.0002 24.4286 26.8396 24.4286 27.8752C24.4286 28.9108 25.268 29.7502 26.3036 29.7502H28.6304L30.7372 38.5001L34.4378 54.7498L35.5484 58.786C34.1903 59.3491 33.2347 60.6879 33.2347 62.2497C33.2347 64.3203 34.9141 65.9997 36.9847 65.9997C38.8421 65.9997 40.3802 64.6484 40.6784 62.8747H49.4845C49.7832 64.6484 51.3207 65.9997 53.1782 65.9997C55.2488 65.9997 56.9281 64.3203 56.9281 62.2497C56.9281 60.1791 55.2488 58.4998 53.1782 58.4998C51.3207 58.4998 49.7826 59.8523 49.4845 61.6247H40.6784C40.3796 59.8523 38.8421 58.4998 36.9847 58.4998C36.9065 58.4998 36.8309 58.5073 36.754 58.5117L36.3528 57.1004C36.6203 57.1898 36.9109 57.2498 37.244 57.2498H57.8494C59.49 57.2498 60.2918 56.0598 60.6618 54.7498L64.3699 38.5001C64.643 36.9895 63.9687 36.0001 62.2256 36.0001ZM53.1782 61.6247C53.5238 61.6247 53.8032 61.9041 53.8032 62.2497C53.8032 62.5953 53.5238 62.8747 53.1782 62.8747C52.8326 62.8747 52.5532 62.5953 52.5532 62.2497C52.5532 61.9041 52.8326 61.6247 53.1782 61.6247ZM36.9284 61.6247C37.274 61.6247 37.5534 61.9041 37.5534 62.2497C37.5534 62.5953 37.274 62.8747 36.9284 62.8747C36.5828 62.8747 36.3034 62.5953 36.3034 62.2497C36.3034 61.9041 36.5828 61.6247 36.9284 61.6247ZM43.1783 51.6249C43.1783 52.6605 42.339 53.4999 41.3033 53.4999C40.2677 53.4999 39.4284 52.6605 39.4284 51.6249V41.625C39.4284 40.5894 40.2677 39.75 41.3033 39.75C42.339 39.75 43.1783 40.5894 43.1783 41.625V51.6249ZM49.4282 51.6249C49.4282 52.6605 48.5889 53.4999 47.5533 53.4999C46.5177 53.4999 45.6783 52.6605 45.6783 51.6249V41.625C45.6783 40.5894 46.5177 39.75 47.5533 39.75C48.5889 39.75 49.4282 40.5894 49.4282 41.625V51.6249ZM55.6781 51.6249C55.6781 52.6605 54.8388 53.4999 53.8032 53.4999C52.7676 53.4999 51.9282 52.6605 51.9282 51.6249V41.625C51.9282 40.5894 52.7676 39.75 53.8032 39.75C54.8388 39.75 55.6781 40.5894 55.6781 41.625V51.6249Z" fill="#172D44"/>
</svg>
