<svg width="14" height="14" viewBox="0 0 14 14" fill="none" xmlns="http://www.w3.org/2000/svg">
<path d="M8.55097 9.62416L9.4376 8.73711C9.57407 8.59899 9.73653 8.48922 9.91559 8.41439C10.0947 8.33956 10.2868 8.30108 10.4809 8.30108C10.675 8.30108 10.8671 8.33956 11.0463 8.41439C11.2253 8.48922 11.3878 8.59899 11.5242 8.73711L12.5641 9.77755C12.7022 9.914 12.8119 10.0764 12.8867 10.2556C12.9615 10.4347 13 10.6271 13 10.8212C13 11.0154 12.9615 11.2077 12.8867 11.3869C12.8119 11.566 12.7022 11.7284 12.5641 11.8648L12.0908 12.345C11.7647 12.6745 11.3429 12.8926 10.8856 12.968C10.4283 13.0434 9.95885 12.9725 9.54427 12.7652C5.9766 10.928 3.0707 8.02318 1.23127 4.45561C1.0239 4.0404 0.953489 3.5701 1.03015 3.11234C1.10682 2.65458 1.32661 2.23288 1.65794 1.90797L2.13122 1.42781C2.4085 1.1521 2.78357 0.997314 3.17452 0.997314C3.56546 0.997314 3.94053 1.1521 4.21781 1.42781L5.26444 2.4749C5.54005 2.75229 5.69475 3.12747 5.69475 3.51858C5.69475 3.90968 5.54005 4.28486 5.26444 4.56225L4.3778 5.4493C4.96405 6.2426 5.608 6.99147 6.30439 7.68999C6.99676 8.38385 7.74114 9.02381 8.53097 9.60416L8.55097 9.62416Z" stroke="#00032E" stroke-opacity="0.5" stroke-width="1.25" stroke-linecap="round" stroke-linejoin="round"/>
</svg>
