<svg width="12" height="16" viewBox="0 0 12 16" fill="none" xmlns="http://www.w3.org/2000/svg">
<path fill-rule="evenodd" clip-rule="evenodd" d="M6 1.33312C7.26618 1.36475 8.4682 1.89694 9.34276 2.8131C10.2173 3.72926 10.6931 4.95471 10.6659 6.22099V6.25432C10.6659 7.15417 10.4193 8.03736 9.95336 8.80724L9.4661 9.48713L6 14.3117L2.5339 9.49046L2.04664 8.8079C1.58044 8.0387 1.334 7.15643 1.33409 6.25698V6.22099C1.30689 4.95471 1.78268 3.72926 2.65724 2.8131C3.53179 1.89694 4.73382 1.36475 6 1.33312ZM6 0C4.3797 0.0299591 2.83759 0.702083 1.71267 1.86863C0.587747 3.03517 -0.0279299 4.60067 0.000973571 6.22099V6.25632C0.00116947 7.41789 0.324257 8.55654 0.934155 9.54512L1.4494 10.265L5.31544 15.6421C5.39294 15.7519 5.49565 15.8414 5.61495 15.9032C5.73425 15.9651 5.86664 15.9973 6.001 15.9973C6.13536 15.9973 6.26775 15.9651 6.38705 15.9032C6.50635 15.8414 6.60906 15.7519 6.68655 15.6421L10.5526 10.265L11.0658 9.54512C11.6756 8.55674 11.9987 7.41833 11.999 6.25698V6.22099C12.0279 4.60067 11.4123 3.03517 10.2873 1.86863C9.16241 0.702083 7.6203 0.0299591 6 0Z" fill="#00032E" fill-opacity="0.5"/>
</svg>
